<svg version="1.1" id="Layer_1" xmlns="http://www.w3.org/2000/svg" xmlns:xlink="http://www.w3.org/1999/xlink" x="0px" y="0px"
	 width="100%" viewBox="0 0 1024 944" enable-background="new 0 0 1024 944" xml:space="preserve">
<path fill="#000000" opacity="1.000000" stroke="none" 
	d="
M1025.000000,638.531494 
	C1018.173462,631.089844 1014.446655,621.336365 1009.317444,612.425720 
	C996.693481,590.494934 984.364929,568.394287 971.912903,546.364502 
	C971.667603,545.930481 971.235962,545.564514 971.108948,545.106445 
	C968.013611,533.945374 960.168701,532.639771 949.775146,532.894836 
	C920.965881,533.602051 892.126953,533.208313 863.301270,533.022034 
	C859.069641,532.994690 856.618896,534.380371 854.588501,538.036621 
	C841.176880,562.187622 827.591309,586.242126 814.065002,610.329468 
	C809.338501,618.746216 804.642517,627.180176 799.882751,635.578064 
	C798.498840,638.019714 797.689514,640.217651 799.522888,642.965820 
	C807.660950,655.164917 813.763611,668.527283 821.116211,681.184082 
	C830.559143,697.438904 839.689514,713.875610 848.910828,730.258606 
	C851.032593,734.028198 853.102356,737.838013 854.959412,741.741943 
	C856.277710,744.513184 858.231445,745.671997 861.249573,745.658264 
	C891.072144,745.522888 920.907593,744.915649 950.711060,745.627014 
	C961.285706,745.879395 966.701294,742.025391 971.502136,733.117004 
	C985.857849,706.478516 1001.039734,680.284180 1015.986328,653.966064 
	C1018.611816,649.343018 1021.659302,644.959595 1024.755981,640.232788 
	C1025.000000,650.020874 1025.000000,660.041809 1025.000000,670.531372 
	C1020.673157,669.521545 1018.275208,670.861389 1015.959229,675.126465 
	C1008.022034,689.743469 999.116211,703.837402 991.269043,718.499634 
	C985.303284,729.646484 978.336487,740.192871 972.492981,751.383362 
	C971.018738,754.206604 969.406372,755.368774 966.003479,755.489197 
	C928.694885,756.808838 891.372925,755.223511 854.068176,756.185669 
	C851.173096,756.260376 849.799194,755.245605 848.392456,752.607056 
	C836.725769,730.725098 825.152588,708.790405 812.352905,687.527466 
	C806.350037,677.555542 800.743042,667.334534 795.269714,657.059631 
	C792.852478,652.521729 789.359314,648.627441 787.757690,643.577820 
	C786.881409,640.814941 783.941772,641.357300 781.664185,641.354065 
	C756.508118,641.318115 731.351929,641.280151 706.195984,641.332520 
	C696.374329,641.352966 686.524780,640.821655 676.749268,642.211487 
	C674.158569,642.579773 672.975586,641.652405 671.873901,639.266052 
	C662.235901,618.390198 649.878906,598.979614 639.052979,578.741821 
	C630.804382,563.322327 621.963318,548.247498 613.076050,533.198486 
	C610.048218,528.071289 610.213684,523.343872 613.123962,518.203613 
	C620.832092,504.589172 628.253662,490.812866 635.873474,477.147888 
	C647.946106,455.497009 659.564819,433.564026 672.510681,412.446228 
	C676.513916,405.915985 674.914612,402.154358 671.862549,396.797638 
	C657.773376,372.069000 643.969666,347.177704 630.059753,322.346863 
	C623.146790,310.006592 616.323547,297.614410 609.244019,285.370392 
	C607.310913,282.027100 607.490845,279.192322 609.290222,276.026031 
	C624.747375,248.826859 640.284790,221.672150 655.542542,194.361267 
	C662.845093,181.289902 670.113464,168.203674 677.543701,155.203781 
	C679.522766,151.741364 681.655823,150.705414 685.389771,150.716324 
	C719.048767,150.814728 752.708191,150.759415 786.367493,150.737854 
	C791.366028,150.734650 796.370605,150.508942 801.360840,150.695435 
	C804.607178,150.816742 806.694092,149.609222 808.255310,146.835770 
	C820.498230,125.085999 832.744385,103.337700 845.090393,81.646362 
	C857.359924,60.089504 870.251892,38.866077 881.824280,16.943939 
	C886.231445,8.595263 891.533997,6.882752 900.213440,6.900790 
	C929.026489,6.960670 957.831848,9.236369 986.639099,7.579570 
	C999.147705,6.860158 1011.602844,7.654397 1024.541016,7.907160 
	C1025.000000,11.030593 1025.000000,14.061185 1025.000000,17.545889 
	C1019.918213,16.666681 1014.731873,17.638985 1009.624939,17.565355 
	C985.131226,17.212225 960.622009,16.934063 936.136108,17.459921 
	C923.644958,17.728180 911.187073,16.939127 898.708862,17.310522 
	C895.531250,17.405100 893.557312,18.225258 891.927490,21.122795 
	C881.815247,39.101379 871.513855,56.973564 861.275513,74.881210 
	C848.391296,97.416664 835.502441,119.949501 822.634949,142.494476 
	C821.811401,143.937408 821.426636,145.711456 820.372375,146.928177 
	C815.713501,152.304977 816.763000,157.180557 820.138306,163.030090 
	C842.767151,202.246796 865.122192,241.622086 887.397278,281.041290 
	C889.500366,284.763092 891.903931,285.937531 896.075867,285.925446 
	C938.738770,285.801849 981.402344,285.888367 1024.532837,285.958069 
	C1025.000000,289.361298 1025.000000,292.722565 1025.000000,296.541931 
	C1011.197083,295.848175 997.379395,296.518738 983.563843,296.609711 
	C967.758545,296.713837 951.952209,296.638916 936.146301,296.646637 
	C921.669128,296.653687 907.191895,296.693939 892.714844,296.655212 
	C889.869263,296.647583 888.135742,297.923920 886.775391,300.359497 
	C875.252319,320.990509 863.691345,341.600586 852.067261,362.174896 
	C842.654175,378.836029 833.221008,395.487183 823.602661,412.029938 
	C821.512878,415.624176 821.557678,418.352020 823.672363,422.048187 
	C839.620178,449.922974 855.294434,477.954224 871.076843,505.923798 
	C872.136658,507.802032 873.861328,509.431915 874.459045,511.422821 
	C877.525024,521.635132 884.588684,523.247437 894.353149,522.953003 
	C917.826843,522.245361 941.337402,522.830444 964.831055,522.643982 
	C968.937622,522.611389 971.118286,524.113647 973.071106,527.568848 
	C987.971985,553.934814 1003.094055,580.175720 1018.017944,606.528748 
	C1020.131042,610.260254 1021.451721,614.440613 1024.706055,617.845947 
	C1025.000000,624.687622 1025.000000,631.375305 1025.000000,638.531494 
M681.270142,393.293243 
	C682.533630,395.446289 683.905762,397.544403 685.029968,399.767883 
	C686.140076,401.963623 687.696167,402.821106 690.193909,402.817719 
	C731.178345,402.762299 772.162781,402.763916 813.147217,402.828217 
	C816.061890,402.832764 817.657104,401.654785 818.938721,399.112183 
	C821.858948,393.318512 824.976929,387.619354 828.165710,381.967072 
	C844.841370,352.408539 861.532471,322.858582 878.324829,293.366302 
	C879.845703,290.695160 879.910950,288.499969 878.362549,285.947937 
	C875.859985,281.823608 873.491821,277.616974 871.102539,273.424805 
	C850.581665,237.419022 830.054626,201.416718 809.580322,165.384506 
	C807.945679,162.507751 805.950195,161.075836 802.437256,161.089355 
	C764.951477,161.233612 727.465149,161.256134 689.979004,161.233917 
	C687.350586,161.232361 685.626099,161.970108 684.356079,164.376144 
	C681.251404,170.257614 677.971802,176.047943 674.704590,181.842209 
	C656.884460,213.445572 639.097839,245.068176 621.141357,276.593903 
	C619.205078,279.993225 619.440247,282.632812 621.300842,285.815887 
	C626.339661,294.436096 631.208313,303.157166 636.062744,311.883667 
	C651.032959,338.794250 665.965149,365.725983 681.270142,393.293243 
M695.494873,630.666199 
	C725.799683,630.600098 756.104736,630.453552 786.408813,630.574402 
	C790.020264,630.588806 791.772400,629.327576 793.324707,626.340454 
	C798.926758,615.560059 805.359070,605.243042 811.192810,594.578735 
	C822.848328,573.271729 835.023010,552.244446 847.259583,531.262817 
	C850.186523,526.244141 850.101196,522.356934 847.156738,517.219055 
	C829.122559,485.750580 811.417969,454.092102 793.805481,422.384705 
	C791.738708,418.663971 789.443115,417.306732 785.220886,417.326904 
	C752.743164,417.482025 720.262817,417.553131 687.787231,417.239166 
	C682.427002,417.187347 679.769165,418.994415 677.364929,423.513702 
	C670.100464,437.168335 662.370789,450.575317 654.835083,464.085876 
	C644.298828,482.975952 633.812317,501.893890 623.206665,520.744873 
	C621.445984,523.874329 621.602173,526.472290 623.477722,529.524536 
	C627.917664,536.749939 632.121887,544.123779 636.296021,551.508484 
	C648.981018,573.950378 661.574524,596.443909 674.266663,618.881714 
	C682.308716,633.098938 678.583923,630.271912 695.494873,630.666199 
M848.498901,499.084381 
	C852.394775,506.042603 856.308350,512.991028 860.178955,519.963318 
	C862.049133,523.332214 864.502686,523.423645 867.840271,521.470337 
	C866.898743,519.469788 866.174377,517.621887 865.203491,515.914062 
	C849.436707,488.178741 833.582092,460.493164 817.892944,432.714081 
	C814.524536,426.750000 809.660889,421.377991 809.676025,413.679047 
	C806.856262,413.246490 804.188599,412.590088 801.046753,414.428284 
	C816.829834,442.577087 832.488708,470.504364 848.498901,499.084381 
z"/>
<path fill="#000000" opacity="1.000000" stroke="none" 
	d="
M97.562500,0.999999 
	C87.490616,19.515347 77.025894,38.056347 66.421921,56.517368 
	C64.896118,59.173721 65.135567,60.976055 66.692963,63.677898 
	C77.725761,82.818062 88.641144,102.032295 99.150040,121.463005 
	C101.426773,125.672607 104.393967,126.538803 108.363075,126.559456 
	C116.680275,126.602737 124.997742,126.603630 133.315094,126.607460 
	C147.465622,126.613991 161.616791,126.537514 175.766190,126.663963 
	C178.984406,126.692719 180.888245,125.623672 182.503525,122.750938 
	C193.503433,103.187958 204.573502,83.661896 215.909592,64.292862 
	C217.922226,60.854057 216.990906,58.369911 215.400345,55.591240 
	C206.971130,40.865505 198.485138,26.172243 190.077927,11.434010 
	C188.272049,8.268249 186.710098,4.963340 185.017883,1.361264 
	C187.041672,1.000000 189.083328,1.000000 191.562500,1.000000 
	C195.061600,10.254201 200.936005,18.031740 205.496552,26.493258 
	C210.785278,36.305836 216.436951,45.931679 222.212418,55.468185 
	C224.218704,58.780994 224.132156,61.560825 222.296066,64.740601 
	C211.981628,82.603287 201.710587,100.491119 191.468826,118.395576 
	C189.817307,121.282745 188.266678,124.241493 186.885040,127.265663 
	C185.144547,131.075272 182.428680,132.458466 178.184677,132.443665 
	C153.368790,132.357040 128.551605,132.467453 103.736084,132.664444 
	C100.471245,132.690369 98.314064,131.537689 96.782532,128.845123 
	C84.442368,107.149948 72.129761,85.439034 59.740986,63.771660 
	C58.152653,60.993736 58.312508,58.642792 59.909729,55.885372 
	C69.501160,39.326874 78.959000,22.690958 88.447327,6.072828 
	C89.269157,4.633452 89.987602,3.135047 90.877029,1.332031 
	C93.041664,1.000000 95.083336,1.000000 97.562500,0.999999 
z"/>
<path fill="#000000" opacity="1.000000" stroke="none" 
	d="
M503.562500,1.000000 
	C507.182220,10.402975 513.172058,18.336363 517.704224,27.033602 
	C522.308411,35.869015 527.531128,44.380272 532.267944,53.149612 
	C533.738708,55.872482 535.572937,56.896385 538.601624,56.881638 
	C561.929688,56.768040 585.258423,56.766312 608.586914,56.747124 
	C610.646118,56.745434 612.467957,56.634457 613.690857,54.483528 
	C623.236267,37.695103 632.863647,20.953289 642.425293,4.174056 
	C642.817139,3.486427 642.806396,2.569387 642.991577,1.379614 
	C645.370544,1.000000 647.741150,1.000000 650.555847,1.000007 
	C641.660583,17.518587 632.425476,34.097321 622.950378,50.537735 
	C614.557068,65.101265 618.757935,62.864990 600.977661,62.913353 
	C579.319153,62.972263 557.659363,62.713291 536.001892,62.855835 
	C532.213257,62.880772 530.134949,61.370201 528.453308,58.379234 
	C519.238037,41.988846 509.917114,25.657238 500.811310,9.206467 
	C499.464996,6.774227 497.223114,4.742715 496.984711,1.367792 
	C499.041656,1.000000 501.083344,1.000000 503.562500,1.000000 
z"/>
<path fill="#000000" opacity="1.000000" stroke="none" 
	d="
M222.562500,1.000000 
	C229.349991,14.396938 237.234573,26.937319 244.623489,39.754612 
	C246.284149,42.635300 248.296494,45.395996 249.441406,48.474339 
	C251.965027,55.259689 256.441772,57.092552 263.588135,56.911449 
	C284.721100,56.375904 305.877777,56.546532 327.020874,56.800934 
	C332.310913,56.864590 335.024536,54.793785 337.486481,50.311924 
	C345.650024,35.450626 354.272156,20.841049 362.743744,6.149529 
	C363.570496,4.715765 364.747833,3.469902 364.961273,1.360297 
	C367.041656,1.000000 369.083344,1.000000 371.562500,1.000000 
	C366.072479,13.469478 358.658112,25.113565 351.920441,37.132957 
	C348.260559,43.661900 344.199127,49.980831 340.831329,56.653187 
	C338.534332,61.204044 335.145172,62.677258 330.422211,62.684765 
	C308.308472,62.719910 286.186188,62.515846 264.085327,63.096489 
	C254.662857,63.344040 248.790833,60.646900 244.277542,51.717831 
	C235.658768,34.666492 225.137680,18.604227 216.147156,1.314845 
	C218.041672,1.000000 220.083328,1.000000 222.562500,1.000000 
z"/>
<path fill="#000000" opacity="1.000000" stroke="none" 
	d="
M201.893250,285.148438 
	C207.342865,294.719421 212.685516,303.930511 217.807526,313.262756 
	C219.913666,317.100098 222.331833,318.998169 227.187881,318.872284 
	C243.490692,318.449768 259.810608,318.737732 276.123016,318.621613 
	C292.231140,318.507019 308.371338,318.777924 324.431763,317.800079 
	C332.626282,317.301117 334.602386,322.841370 337.281830,327.820587 
	C351.155579,353.602264 365.550903,379.088989 380.029877,404.531372 
	C381.674805,407.421844 383.045074,410.467438 384.591644,413.415436 
	C386.170654,416.425323 385.361511,419.226013 383.944946,421.987366 
	C375.737122,437.987305 366.974152,453.683075 358.198608,469.376678 
	C350.482208,483.176147 342.989014,497.094635 334.937897,510.711670 
	C332.924011,514.117798 330.868988,515.331177 327.121185,515.318542 
	C296.464966,515.214905 265.794891,514.754517 235.160400,515.574646 
	C226.690750,515.801392 222.336014,513.463257 218.545151,506.333588 
	C210.352478,490.925232 201.481689,475.875031 192.781067,460.739960 
	C186.641769,450.060425 179.274460,439.938202 174.410980,428.719391 
	C170.272583,419.173126 164.464493,417.762299 155.137650,418.073700 
	C127.397682,418.999756 99.621223,418.809967 71.860115,419.146271 
	C67.017479,419.204895 63.826824,417.286682 61.340805,413.057495 
	C47.506058,389.521973 33.208027,366.254913 21.582880,341.486267 
	C19.540218,337.134155 16.888075,333.058075 14.383926,328.935608 
	C12.235704,325.399078 12.573027,322.254791 14.654621,318.685425 
	C27.390907,296.846039 39.958828,274.908386 52.570557,252.996384 
	C55.971767,247.087036 59.419640,241.201569 62.669319,235.209259 
	C64.197693,232.390991 66.122360,231.349915 69.441635,231.359665 
	C102.065094,231.455460 134.689240,231.377884 167.312866,231.263214 
	C170.030884,231.253662 171.565079,232.350052 172.839279,234.625656 
	C179.344925,246.244034 185.930298,257.818146 192.548584,269.372894 
	C195.525131,274.569580 198.643417,279.685059 201.893250,285.148438 
M330.391479,328.034149 
	C329.125610,324.930328 326.709320,324.260132 323.554565,324.276428 
	C302.729309,324.384094 281.900604,324.552490 261.078613,324.278351 
	C249.425262,324.124939 237.789795,325.402283 226.142746,324.474060 
	C224.221512,324.320953 223.028717,325.071411 222.259720,326.861816 
	C217.715668,337.441681 211.441940,347.106873 205.943481,357.174286 
	C196.370270,374.702393 186.214737,391.912506 176.299911,409.253998 
	C174.797531,411.881714 173.340347,414.327301 175.201706,417.588867 
	C182.380676,430.168121 189.272049,442.911804 196.473785,455.477753 
	C205.993301,472.087769 216.138275,488.342072 224.623276,505.536865 
	C225.873581,508.070587 227.352844,510.232849 230.971741,510.209625 
	C241.261551,510.143616 251.572495,510.951508 261.841339,510.550262 
	C281.953522,509.764374 302.070007,511.227356 322.183075,510.020874 
	C326.969391,509.733765 329.933624,508.114777 332.090240,504.012207 
	C336.737274,495.172150 341.467010,486.371796 346.354248,477.662537 
	C356.861237,458.938721 366.678741,439.828705 377.823853,421.461853 
	C378.840820,419.785919 380.218323,418.107635 379.117188,415.930603 
	C377.392548,412.520813 375.722595,409.078125 373.859985,405.744049 
	C359.506989,380.051910 345.113098,354.382629 330.391479,328.034149 
M41.762753,365.798859 
	C50.537445,380.905273 59.342873,395.994049 68.053787,411.137146 
	C69.361328,413.410187 71.302605,413.804169 73.534332,413.789093 
	C102.850754,413.591095 132.168381,414.306030 161.487091,413.580597 
	C165.980255,413.469421 168.379852,411.757050 170.408783,407.955505 
	C176.599854,396.355408 183.091431,384.915192 189.505722,373.434906 
	C197.867722,358.468628 206.301117,343.542145 214.615768,328.549683 
	C215.872986,326.282745 217.802429,323.448547 215.536957,321.171265 
	C212.093872,317.710236 210.836212,313.191956 208.548950,309.185974 
	C196.016708,287.236755 183.349365,265.361389 171.150116,243.228226 
	C168.744858,238.864334 166.437332,237.070679 161.337906,237.122803 
	C133.683029,237.405518 106.020355,237.513245 78.368507,237.115555 
	C70.980827,237.009308 66.749466,238.697723 62.919647,245.778152 
	C49.306377,270.945953 34.679699,295.567047 20.323065,320.329224 
	C18.874325,322.828003 18.881104,324.756866 20.289789,327.202576 
	C27.515419,339.747589 35.122822,352.083923 41.762753,365.798859 
z"/>
<path fill="#000000" opacity="1.000000" stroke="none" 
	d="
M506.900085,182.058716 
	C501.416199,172.303787 496.174500,162.832275 490.799347,153.437134 
	C489.239197,150.710098 489.112244,148.380264 490.745697,145.540619 
	C502.946106,124.331436 515.007996,103.042572 527.116150,81.780342 
	C528.913635,78.623909 531.060547,76.100021 535.188416,76.076012 
	C560.674438,75.927811 586.159729,75.572250 611.644348,76.315453 
	C614.512939,76.399101 616.029480,77.535538 617.420532,80.044662 
	C626.862183,97.074944 636.512024,113.989708 646.061890,130.960144 
	C649.079590,136.322723 651.986877,141.747314 654.966431,147.131485 
	C656.130554,149.234940 655.902405,151.073975 654.668701,153.197037 
	C646.647339,167.000504 638.763550,180.883896 630.827454,194.736969 
	C626.279175,202.676437 621.618713,210.553879 617.210999,218.570419 
	C615.487122,221.705658 613.271729,223.113724 609.654541,223.101486 
	C586.158264,223.021927 562.661255,223.011093 539.165283,223.134613 
	C532.570862,223.169281 528.409424,221.219955 525.289429,214.518921 
	C520.108398,203.391006 513.245789,193.045975 506.900085,182.058716 
M560.531799,82.299881 
	C553.544556,82.295433 546.547180,82.516640 539.573792,82.203110 
	C535.294434,82.010696 532.894592,83.722450 530.944580,87.371689 
	C526.792908,95.141258 522.288025,102.722389 517.914429,110.373047 
	C511.147156,122.211075 504.365479,134.040894 497.597382,145.878479 
	C496.303619,148.141296 495.662415,150.365265 497.134033,152.921570 
	C508.748779,173.097549 520.341064,193.286804 531.821777,213.539124 
	C533.267029,216.088577 535.055908,216.868683 537.848389,216.857269 
	C560.992188,216.762619 584.136536,216.734207 607.280212,216.824478 
	C610.580811,216.837372 612.252319,215.505432 613.827271,212.680634 
	C625.083557,192.492020 636.480469,172.380630 648.024048,152.355072 
	C649.221985,150.276978 649.321472,148.899475 648.215942,146.956512 
	C636.783691,126.863968 625.342468,106.775871 614.071838,86.592682 
	C612.273804,83.372826 610.055908,82.254501 606.474182,82.288544 
	C591.491028,82.430962 576.505737,82.340866 560.531799,82.299881 
z"/>
<path fill="#000000" opacity="1.000000" stroke="none" 
	d="
M217.543427,289.396088 
	C207.862152,272.456055 198.420349,255.799927 188.842499,239.222427 
	C186.635025,235.401703 186.369202,232.052811 188.683914,228.052429 
	C199.349854,209.619217 209.844391,191.085709 220.274033,172.517181 
	C228.891068,157.175705 224.581604,160.024338 242.928406,159.938995 
	C263.921997,159.841354 284.917145,159.954239 305.909119,159.737564 
	C310.205688,159.693207 312.905029,160.838760 315.096649,164.783463 
	C326.888611,186.007736 338.905060,207.108063 350.963379,228.182892 
	C353.379608,232.405823 353.111847,235.837326 350.584167,240.136902 
	C338.695038,260.360504 327.039551,280.727722 315.713196,301.271149 
	C313.214935,305.802399 309.915192,306.578247 305.585724,306.559143 
	C283.282196,306.460754 260.964539,305.907776 238.682098,306.556000 
	C230.147919,306.804230 224.713608,304.648102 221.640167,296.671112 
	C220.693237,294.213379 219.055115,292.021942 217.543427,289.396088 
M333.681305,257.207703 
	C337.470154,250.559921 341.113129,243.822556 345.115051,237.305634 
	C346.877350,234.435806 346.473206,232.259903 344.906860,229.526001 
	C333.826752,210.186203 322.722168,190.856064 312.034332,171.299332 
	C309.752716,167.124344 307.290436,165.856247 302.717529,165.888214 
	C279.764221,166.048737 256.807526,165.923096 233.854538,165.670013 
	C231.019760,165.638748 230.126572,167.017487 229.020721,168.970367 
	C217.469986,189.368484 205.930283,209.773422 194.224213,230.082306 
	C192.777298,232.592545 192.651062,234.524963 194.046463,236.969086 
	C205.344315,256.757599 216.595016,276.573212 227.797333,296.415955 
	C229.399200,299.253296 231.295639,300.832550 234.851364,300.815216 
	C257.829773,300.703247 280.809509,300.728607 303.787750,300.874847 
	C307.661682,300.899475 309.922699,299.254059 311.711060,296.054504 
	C318.849640,283.282623 326.101135,270.573883 333.681305,257.207703 
z"/>
<path fill="#000000" opacity="1.000000" stroke="none" 
	d="
M384.270538,372.254822 
	C379.674469,372.588348 377.125580,370.771515 375.073364,367.085876 
	C363.170929,345.709900 351.050140,324.455475 338.993225,303.165588 
	C337.398682,300.349976 337.246460,297.822571 339.001709,294.772095 
	C351.201019,273.571106 363.286865,252.303421 375.203003,230.942200 
	C377.306519,227.171356 379.621399,225.533768 384.142212,225.577835 
	C408.944672,225.819595 433.750946,225.744522 458.555298,225.638779 
	C461.801422,225.624939 463.815796,226.718781 465.369659,229.536606 
	C473.241516,243.811630 481.202301,258.037872 489.188477,272.249451 
	C493.426758,279.791595 497.654388,287.345428 502.144043,294.737762 
	C503.891541,297.615021 504.166138,299.805328 502.365295,302.908295 
	C489.836578,324.496246 477.464355,346.176422 465.246948,367.942108 
	C463.422485,371.192444 461.277161,372.248535 457.721161,372.235901 
	C433.392548,372.149597 409.063324,372.230103 384.270538,372.254822 
M368.955963,344.592010 
	C372.203674,350.407166 375.552002,356.169220 378.659851,362.058167 
	C380.414185,365.382446 382.751740,366.992493 386.628632,366.663574 
	C391.103088,366.283997 395.616730,366.070251 400.103363,366.182953 
	C418.076447,366.634399 436.061768,365.493011 454.026367,366.633789 
	C457.734375,366.869202 460.234314,365.447876 462.103058,362.072388 
	C472.825867,342.703979 483.581146,323.350525 494.645203,304.176514 
	C496.891174,300.284210 496.787170,297.377075 494.654480,293.634827 
	C483.608582,274.252869 472.700806,254.790955 461.925476,235.257294 
	C460.184296,232.100845 457.911621,231.299225 454.636536,231.308136 
	C431.638275,231.370773 408.639587,231.374054 385.641510,231.279388 
	C382.646210,231.267075 380.900726,232.125656 379.356964,234.915619 
	C368.316223,254.868927 357.171722,274.767883 345.754639,294.507355 
	C343.447266,298.496704 343.932281,301.567047 346.209381,304.996735 
	C354.509796,317.498505 360.812500,331.150177 368.955963,344.592010 
z"/>
<path fill="#000000" opacity="1.000000" stroke="none" 
	d="
M635.673828,366.390442 
	C641.061646,375.987091 646.167603,385.322327 651.495483,394.529114 
	C653.169495,397.421722 653.496277,399.979584 651.819763,402.925476 
	C639.235962,425.036591 626.703064,447.176666 614.153076,469.307007 
	C612.978760,471.377625 611.262756,472.276306 608.819031,472.272827 
	C583.170044,472.236359 557.520569,472.196472 531.872437,472.354584 
	C527.880005,472.379211 526.264038,469.917419 524.686707,467.185242 
	C517.372009,454.514923 510.113953,441.811798 502.884216,429.092743 
	C497.874298,420.278961 493.032043,411.368530 487.924316,402.612427 
	C486.364777,399.938965 486.505798,397.598328 487.921783,395.118164 
	C500.363953,373.325165 512.887329,351.577911 525.183594,329.702942 
	C526.797119,326.832550 528.540344,325.588104 531.768127,325.586243 
	C557.080383,325.571533 582.392761,325.462219 607.704895,325.345062 
	C610.993103,325.329865 613.214722,326.502136 614.892944,329.554413 
	C621.626282,341.799957 628.595703,353.915680 635.673828,366.390442 
M646.000854,396.556549 
	C634.653076,376.407715 623.210266,356.311249 612.046387,336.060974 
	C610.071594,332.478912 607.792236,331.164062 603.793823,331.192627 
	C581.642822,331.351135 559.489014,331.406097 537.339111,331.192780 
	C532.656494,331.147705 529.957336,332.994324 527.801636,336.830017 
	C516.880188,356.263306 505.885437,375.655670 494.824677,395.010010 
	C493.361359,397.570526 493.068939,399.690155 494.622040,402.391266 
	C506.148590,422.437378 517.609558,442.522247 528.902954,462.700226 
	C530.504944,465.562439 532.240540,466.676758 535.504395,466.659912 
	C557.322266,466.547089 579.148926,466.297119 600.954895,466.828339 
	C607.685425,466.992310 610.687256,464.089569 613.598145,458.834991 
	C623.665894,440.660889 634.133362,422.708557 644.367065,404.625580 
	C645.632141,402.390167 647.487610,400.159454 646.000854,396.556549 
z"/>
</svg>